<?xml version="1.0" standalone="no"?>
<!DOCTYPE svg PUBLIC "-//W3C//DTD SVG 20010904//EN"
 "http://www.w3.org/TR/2001/REC-SVG-20010904/DTD/svg10.dtd">
<svg version="1.0" xmlns="http://www.w3.org/2000/svg"
 width="671.000000pt" height="63.000000pt" viewBox="0 0 671.000000 63.000000"
 preserveAspectRatio="xMidYMid meet">
<metadata>
Created by potrace 1.10, written by Peter Selinger 2001-2011
</metadata>
<g transform="translate(0.000000,63.000000) scale(0.100000,-0.100000)"
fill="currentcolor" stroke="none">
<path d="M34 597 c-2 -7 -3 -78 -2 -157 l3 -145 87 0 c48 0 90 -4 94 -8 4 -4
-1 -16 -11 -27 -18 -20 -18 -20 55 -20 58 0 71 3 62 12 -7 7 -12 19 -12 28 0
14 13 17 88 16 l87 -1 3 158 3 157 -226 0 c-176 0 -227 -3 -231 -13z m446
-127 l0 -120 -217 0 -218 0 3 120 3 120 215 0 214 0 0 -120z m-205 -149 c7
-12 -12 -24 -25 -16 -11 7 -4 25 10 25 5 0 11 -4 15 -9z"/>
<path d="M260 489 c-6 -22 -14 -47 -17 -55 -3 -8 -1 -14 3 -14 5 0 16 25 25
55 9 30 13 55 8 55 -4 0 -13 -18 -19 -41z"/>
<path d="M183 485 c-18 -8 -33 -16 -33 -19 0 -10 61 -37 73 -33 7 3 -1 10 -16
16 -28 11 -29 31 -2 31 8 0 17 5 20 10 8 13 -3 12 -42 -5z"/>
<path d="M290 494 c0 -3 14 -10 31 -16 l32 -11 -34 -18 c-19 -10 -28 -18 -21
-19 14 0 72 28 72 35 0 6 -57 35 -70 35 -5 0 -10 -2 -10 -6z"/>
<path d="M740 420 c0 -102 16 -140 22 -52 l3 47 63 0 62 1 0 -48 c0 -26 5 -48
10 -48 6 0 10 40 10 100 0 60 -4 100 -10 100 -5 0 -10 -18 -10 -40 l0 -40 -65
0 -65 0 0 40 c0 22 -4 40 -10 40 -6 0 -10 -40 -10 -100z"/>
<path d="M973 423 c1 -67 6 -98 15 -101 9 -3 12 21 12 97 0 82 -3 101 -15 101
-11 0 -14 -18 -12 -97z"/>
<path d="M1058 508 c8 -8 12 -45 12 -100 0 -52 4 -88 10 -88 6 0 10 31 10 73
l1 72 38 -42 38 -42 29 39 c16 22 33 40 37 40 5 0 7 -30 6 -67 -2 -44 2 -68 9
-71 9 -3 12 22 12 85 0 56 4 93 12 101 9 9 8 12 -7 12 -11 -1 -38 -23 -60 -50
l-40 -49 -43 50 c-24 27 -51 49 -60 49 -12 0 -13 -3 -4 -12z"/>
<path d="M1390 505 c0 -9 -18 -52 -41 -96 -40 -81 -44 -106 -12 -77 10 9 41
18 70 20 43 2 55 -1 67 -17 8 -11 18 -17 22 -12 9 9 -82 197 -96 197 -5 0 -10
-7 -10 -15z m39 -76 c12 -23 21 -42 19 -44 -6 -4 -88 -15 -88 -11 0 7 41 96
44 96 2 0 14 -19 25 -41z"/>
<path d="M1620 425 l0 -95 68 0 c57 0 72 4 88 21 18 20 18 22 1 51 -12 22 -15
34 -7 42 15 15 12 41 -8 59 -13 12 -37 17 -80 17 l-62 0 0 -95z m114 69 c9 -3
16 -17 16 -30 0 -20 -5 -24 -32 -24 -18 0 -43 -3 -54 -6 -20 -5 -21 -2 -19 28
2 18 4 34 4 36 2 5 70 2 85 -4z m21 -114 c0 -23 -4 -25 -57 -28 l-57 -3 4 28
c2 15 4 29 4 31 1 2 25 2 54 0 48 -3 52 -5 52 -28z"/>
<path d="M1840 419 c0 -69 3 -100 11 -97 16 5 18 198 2 198 -10 0 -13 -27 -13
-101z"/>
<path d="M1929 506 c8 -9 12 -45 10 -97 -1 -54 2 -84 9 -87 7 -2 12 22 14 69
l3 72 59 -71 c32 -40 62 -72 66 -72 5 0 10 45 12 100 2 73 0 100 -9 100 -8 0
-13 -25 -15 -77 l-3 -78 -64 78 c-35 42 -70 77 -79 77 -11 0 -12 -3 -3 -14z"/>
<path d="M2163 506 c14 -11 17 -29 17 -97 l0 -84 55 3 c70 5 105 36 105 94 0
30 -7 46 -29 69 -27 26 -35 29 -98 29 -59 -1 -66 -2 -50 -14z m132 -31 c51
-50 17 -125 -57 -125 l-38 0 0 68 c0 38 3 72 7 75 15 16 65 6 88 -18z"/>
<path d="M2392 439 c3 -66 7 -83 23 -95 41 -30 89 -30 130 0 16 12 20 29 23
95 4 68 2 81 -12 81 -12 0 -16 -15 -18 -77 -3 -74 -4 -78 -30 -91 -23 -11 -33
-11 -55 0 -27 13 -28 17 -31 91 -2 62 -6 77 -18 77 -14 0 -16 -13 -12 -81z"/>
<path d="M2680 510 c0 -5 16 -10 35 -10 l35 0 0 -91 c0 -68 3 -90 13 -86 8 2
12 30 13 88 l2 84 36 3 c70 6 35 22 -49 22 -50 0 -85 -4 -85 -10z"/>
<path d="M2890 423 l0 -98 72 2 c95 2 106 23 13 23 l-66 0 3 28 c3 24 7 27 46
30 30 2 42 8 42 19 0 13 -8 15 -46 9 l-45 -6 3 33 c3 32 4 32 61 35 81 4 71
22 -13 22 l-70 0 0 -97z"/>
<path d="M3090 425 l0 -95 60 0 c33 0 63 0 67 -1 4 0 9 4 11 10 2 7 -18 11
-55 11 l-58 0 4 85 c3 73 1 85 -13 85 -14 0 -16 -15 -16 -95z"/>
<path d="M3270 426 l0 -94 65 -4 c47 -2 65 0 65 10 0 8 -18 12 -55 12 l-55 0
0 85 c0 50 -4 85 -10 85 -6 0 -10 -38 -10 -94z"/>
<path d="M3504 512 c3 -5 -15 -49 -39 -97 -45 -91 -49 -110 -18 -83 10 9 42
18 71 20 45 4 56 2 65 -13 7 -11 17 -19 24 -19 7 0 -8 42 -34 100 -26 56 -53
100 -60 100 -8 0 -12 -4 -9 -8z m40 -86 c11 -20 17 -38 15 -40 -2 -2 -23 -6
-46 -10 l-41 -6 21 50 c11 27 23 47 26 45 3 -2 15 -19 25 -39z"/>
<path d="M3660 426 c0 -52 4 -98 10 -101 5 -3 24 14 41 39 l32 45 26 -39 c26
-40 46 -54 62 -44 14 8 11 24 -6 24 -8 0 -26 18 -41 39 l-26 40 32 45 c21 32
26 46 17 46 -8 0 -37 -35 -66 -77 l-51 -78 0 78 c0 62 -3 77 -15 77 -12 0 -15
-17 -15 -94z"/>
<path d="M3881 440 c3 -65 8 -82 24 -94 50 -37 128 -26 146 21 5 13 9 53 9 89
0 49 -3 64 -15 64 -11 0 -15 -18 -17 -77 -3 -74 -4 -78 -30 -91 -23 -11 -33
-11 -55 0 -27 13 -28 17 -31 91 -2 62 -6 77 -18 77 -14 0 -16 -13 -13 -80z"/>
<path d="M4120 425 l0 -95 70 0 c40 0 70 4 70 10 0 6 -27 10 -60 10 l-60 0 0
85 c0 50 -4 85 -10 85 -6 0 -10 -38 -10 -95z"/>
<path d="M4355 510 c3 -5 -12 -45 -35 -89 -47 -94 -50 -110 -17 -88 13 8 46
16 75 18 42 3 54 0 66 -16 8 -11 17 -17 21 -14 10 10 -88 199 -103 199 -7 0
-11 -4 -7 -10z m43 -85 c21 -43 21 -45 3 -45 -10 0 -32 -3 -49 -6 l-31 -6 19
40 c11 23 20 46 20 52 0 23 17 7 38 -35z"/>
</g>
</svg>
